<svg xmlns="http://www.w3.org/2000/svg" width="19" height="20" viewBox="0 0 19 20" fill="none"><path d="M17.375 0.416016C18.0723 0.416016 18.6875 1.04831 18.6875 1.80706V17.9517C18.6875 18.7104 18.0723 19.3005 17.375 19.3005H1.58398C0.886719 19.3005 0.3125 18.7104 0.3125 17.9517V1.80706C0.3125 1.04831 0.886719 0.416016 1.58398 0.416016H17.375ZM5.84961 16.6028V7.62417H3.14258V16.6028H5.84961ZM4.49609 6.35958C5.35742 6.35958 6.05469 5.64298 6.05469 4.75777C6.05469 3.87256 5.35742 3.11381 4.49609 3.11381C3.59375 3.11381 2.89648 3.87256 2.89648 4.75777C2.89648 5.64298 3.59375 6.35958 4.49609 6.35958ZM16.0625 16.6028V11.6709C16.0625 9.26814 15.5293 7.37126 12.7812 7.37126C11.4688 7.37126 10.5664 8.13001 10.1973 8.84661H10.1562V7.62417H7.57227V16.6028H10.2793V12.1767C10.2793 10.9964 10.4844 9.85828 11.9199 9.85828C13.3145 9.85828 13.3145 11.2072 13.3145 12.2188V16.6028H16.0625Z" fill="#024950"></path></svg>