<svg xmlns="http://www.w3.org/2000/svg" width="23" height="20" viewBox="0 0 23 20" fill="none"><path fill-rule="evenodd" clip-rule="evenodd" d="M15.1105 0.555521C13.0144 0.953152 11.4002 2.78175 11.2277 4.954C11.1928 5.39402 11.2228 6.17553 11.2845 6.43144C11.3092 6.53363 11.3023 6.53575 11.0268 6.5112C8.3554 6.27321 6.05996 5.38998 3.99451 3.80538C3.18942 3.18769 2.35093 2.37727 1.75446 1.64036L1.53291 1.3666L1.40827 1.61689C1.25679 1.92106 1.03028 2.61831 0.96861 2.97026C0.792782 3.97356 0.922756 5.04643 1.32632 5.92355C1.66574 6.66126 2.12875 7.28345 2.6463 7.69723C2.79751 7.8181 2.89599 7.92574 2.86523 7.93639C2.77501 7.96765 2.10571 7.85312 1.78125 7.75093C1.6169 7.6992 1.34498 7.5919 1.17692 7.51252C1.00891 7.43315 0.86267 7.37729 0.851918 7.38841C0.841211 7.39954 0.851873 7.62307 0.875591 7.88509C0.999873 9.2572 1.68584 10.5239 2.76674 11.3773C3.13272 11.6662 3.86084 12.043 4.28342 12.162L4.59966 12.2511L4.35119 12.3085C4.00594 12.3882 3.06672 12.4252 2.78246 12.3702C2.65262 12.3452 2.53756 12.3338 2.52667 12.3451C2.49347 12.3796 2.75793 13.0058 2.9353 13.3126C3.69716 14.6304 5.06295 15.5759 6.40673 15.7157C6.93169 15.7703 6.92695 15.7639 6.61613 15.9989C5.56346 16.7948 4.25654 17.3825 2.92811 17.6574C2.16729 17.8148 1.58058 17.864 0.747831 17.8402C0.317205 17.8279 -0.0189568 17.8331 0.000830705 17.8518C0.117974 17.9625 1.1677 18.5498 1.64387 18.7711C4.2054 19.9614 7.10671 20.3042 9.93013 19.7501C11.9272 19.3582 13.9375 18.4128 15.5086 17.1266C17.962 15.1181 19.7374 12.0995 20.409 8.79479C20.5823 7.94174 20.663 7.20896 20.6922 6.22298L20.7188 5.3215L21.0622 5.04361C21.6918 4.53393 22.5805 3.54683 22.9395 2.95829C23.0446 2.78602 23.0991 2.77673 22.342 3.06015C21.8438 3.2467 21.0877 3.44746 20.6375 3.5128C20.3829 3.54974 20.3839 3.54533 20.6821 3.32504C21.1793 2.95778 21.7369 2.30475 22.0357 1.73996C22.2107 1.40913 22.4381 0.841997 22.3859 0.866547C22.3685 0.874715 22.0797 1.02215 21.7443 1.19414C21.0699 1.53995 20.5593 1.73837 19.8903 1.91458C19.6462 1.97884 19.4353 2.03146 19.4217 2.03146C19.4081 2.03146 19.2592 1.90144 19.0911 1.7425C18.0378 0.747413 16.5063 0.290685 15.1105 0.555521Z" fill="#024950"></path></svg>